<svg xmlns="http://www.w3.org/2000/svg" viewBox="0 0 28 20">
  <rect width="28" height="20" fill="#B22234"/>
  <rect width="28" height="1.54" y="1.54" fill="#FFFFFF"/>
  <rect width="28" height="1.54" y="4.62" fill="#FFFFFF"/>
  <rect width="28" height="1.54" y="7.69" fill="#FFFFFF"/>
  <rect width="28" height="1.54" y="10.77" fill="#FFFFFF"/>
  <rect width="28" height="1.54" y="13.85" fill="#FFFFFF"/>
  <rect width="28" height="1.54" y="16.92" fill="#FFFFFF"/>
  <rect width="11.2" height="10.77" fill="#3C3B6E"/>
  <g fill="#FFFFFF">
    <circle cx="2.8" cy="1.54" r="0.5"/>
    <circle cx="5.6" cy="1.54" r="0.5"/>
    <circle cx="8.4" cy="1.54" r="0.5"/>
    <circle cx="1.4" cy="3.08" r="0.5"/>
    <circle cx="4.2" cy="3.08" r="0.5"/>
    <circle cx="7" cy="3.08" r="0.5"/>
    <circle cx="9.8" cy="3.08" r="0.5"/>
    <circle cx="2.8" cy="4.62" r="0.5"/>
    <circle cx="5.6" cy="4.62" r="0.5"/>
    <circle cx="8.4" cy="4.62" r="0.5"/>
    <circle cx="1.4" cy="6.15" r="0.5"/>
    <circle cx="4.2" cy="6.15" r="0.5"/>
    <circle cx="7" cy="6.15" r="0.5"/>
    <circle cx="9.8" cy="6.15" r="0.5"/>
    <circle cx="2.8" cy="7.69" r="0.5"/>
    <circle cx="5.6" cy="7.69" r="0.5"/>
    <circle cx="8.4" cy="7.69" r="0.5"/>
    <circle cx="1.4" cy="9.23" r="0.5"/>
    <circle cx="4.2" cy="9.23" r="0.5"/>
    <circle cx="7" cy="9.23" r="0.5"/>
    <circle cx="9.8" cy="9.23" r="0.5"/>
  </g>
</svg>

